HIERARCHY
ROOT Root
{
  OFFSET 0.0 0.0 0.0
  CHANNELS 6 Xposition Yposition Zposition Zrotation Yrotation Xrotation
  JOINT Hips
  {
    OFFSET 0.0 100.0 0.0
    CHANNELS 6 Xposition Yposition Zposition Zrotation Yrotation Xrotation
    JOINT Spine1
    {
      OFFSET 5.003913 -0.037094 -0.013727
      CHANNELS 3 Zrotation Yrotation Xrotation
      JOINT Spine2
      {
        OFFSET 7.125363 -1e-06 0.0
        CHANNELS 3 Zrotation Yrotation Xrotation
        JOINT Chest
        {
          OFFSET 7.594027 1e-06 0.0
          CHANNELS 3 Zrotation Yrotation Xrotation
          JOINT Neck1
          {
            OFFSET 26.313086 -0.460272 -0.181672
            CHANNELS 3 Zrotation Yrotation Xrotation
            JOINT Neck2
            {
              OFFSET 8.045911 0.0 0.0
              CHANNELS 3 Zrotation Yrotation Xrotation
              JOINT Head
              {
                OFFSET 6.432774 0.0 0.0
                CHANNELS 3 Zrotation Yrotation Xrotation
                JOINT HeadEnd
                {
                  OFFSET 16.169773 0.06451 0.00362
                  CHANNELS 3 Zrotation Yrotation Xrotation
                }
                JOINT Jaw
                {
                  OFFSET 0.108741 3.12938 0.002639
                  CHANNELS 3 Zrotation Yrotation Xrotation
                }
                JOINT LeftEye
                {
                  OFFSET 4.45173 8.166359 3.206392
                  CHANNELS 3 Zrotation Yrotation Xrotation
                }
                JOINT RightEye
                {
                  OFFSET 4.436895 8.135758 -3.222429
                  CHANNELS 3 Zrotation Yrotation Xrotation
                }
              }
            }
          }
          JOINT LeftShoulder
          {
            OFFSET 23.218927 5.195579 1.621656
            CHANNELS 3 Zrotation Yrotation Xrotation
            JOINT LeftArm
            {
              OFFSET 15.902118 2e-06 -2e-06
              CHANNELS 3 Zrotation Yrotation Xrotation
              JOINT LeftForeArm
              {
                OFFSET 28.739307 0.0 -1e-06
                CHANNELS 3 Zrotation Yrotation Xrotation
                JOINT LeftHand
                {
                  OFFSET 27.093981 -4e-06 0.0
                  CHANNELS 3 Zrotation Yrotation Xrotation
                  JOINT LeftHandThumb1
                  {
                    OFFSET 2.276781 3.380274 0.83384
                    CHANNELS 3 Zrotation Yrotation Xrotation
                    JOINT LeftHandThumb2
                    {
                      OFFSET 4.705309 -1e-06 -1e-06
                      CHANNELS 3 Zrotation Yrotation Xrotation
                      JOINT LeftHandThumb3
                      {
                        OFFSET 2.798515 0.0 3e-06
                        CHANNELS 3 Zrotation Yrotation Xrotation
                        JOINT LeftHandThumbEnd
                        {
                          OFFSET 3.180793 4e-06 -4e-06
                          CHANNELS 3 Zrotation Yrotation Xrotation
                        }
                      }
                    }
                  }
                  JOINT LeftHandIndex1
                  {
                    OFFSET 3.247786 2.352677 0.137192
                    CHANNELS 3 Zrotation Yrotation Xrotation
                    JOINT LeftHandIndex2
                    {
                      OFFSET 6.367095 1e-06 0.0
                      CHANNELS 3 Zrotation Yrotation Xrotation
                      JOINT LeftHandIndex3
                      {
                        OFFSET 3.662364 0.0 0.0
                        CHANNELS 3 Zrotation Yrotation Xrotation
                        JOINT LeftHandIndex4
                        {
                          OFFSET 2.329242 4e-06 -4e-06
                          CHANNELS 3 Zrotation Yrotation Xrotation
                          JOINT LeftHandIndexEnd
                          {
                            OFFSET 2.767823 1e-06 0.0
                            CHANNELS 3 Zrotation Yrotation Xrotation
                          }
                        }
                      }
                    }
                  }
                  JOINT LeftHandMiddle1
                  {
                    OFFSET 3.163612 0.945023 -0.406112
                    CHANNELS 3 Zrotation Yrotation Xrotation
                    JOINT LeftHandMiddle2
                    {
                      OFFSET 6.276789 3e-06 0.0
                      CHANNELS 3 Zrotation Yrotation Xrotation
                      JOINT LeftHandMiddle3
                      {
                        OFFSET 4.35652 -1e-06 4e-06
                        CHANNELS 3 Zrotation Yrotation Xrotation
                        JOINT LeftHandMiddle4
                        {
                          OFFSET 2.996877 0.0 8e-06
                          CHANNELS 3 Zrotation Yrotation Xrotation
                          JOINT LeftHandMiddleEnd
                          {
                            OFFSET 2.323256 3e-06 -4e-06
                            CHANNELS 3 Zrotation Yrotation Xrotation
                          }
                        }
                      }
                    }
                  }
                  JOINT LeftHandRing1
                  {
                    OFFSET 2.882606 -0.309162 0.107445
                    CHANNELS 3 Zrotation Yrotation Xrotation
                    JOINT LeftHandRing2
                    {
                      OFFSET 6.033198 0.0 4e-06
                      CHANNELS 3 Zrotation Yrotation Xrotation
                      JOINT LeftHandRing3
                      {
                        OFFSET 4.350578 3e-06 0.0
                        CHANNELS 3 Zrotation Yrotation Xrotation
                        JOINT LeftHandRing4
                        {
                          OFFSET 2.651321 2e-06 -7e-06
                          CHANNELS 3 Zrotation Yrotation Xrotation
                          JOINT LeftHandRingEnd
                          {
                            OFFSET 1.937663 1e-06 -4e-06
                            CHANNELS 3 Zrotation Yrotation Xrotation
                          }
                        }
                      }
                    }
                  }
                  JOINT LeftHandPinky1
                  {
                    OFFSET 2.865315 -1.525436 0.575687
                    CHANNELS 3 Zrotation Yrotation Xrotation
                    JOINT LeftHandPinky2
                    {
                      OFFSET 5.54936 1e-06 -8e-06
                      CHANNELS 3 Zrotation Yrotation Xrotation
                      JOINT LeftHandPinky3
                      {
                        OFFSET 3.070974 0.0 -4e-06
                        CHANNELS 3 Zrotation Yrotation Xrotation
                        JOINT LeftHandPinky4
                        {
                          OFFSET 1.549672 1e-06 0.0
                          CHANNELS 3 Zrotation Yrotation Xrotation
                          JOINT LeftHandPinkyEnd
                          {
                            OFFSET 1.952123 0.0 0.0
                            CHANNELS 3 Zrotation Yrotation Xrotation
                          }
                        }
                      }
                    }
                  }
                }
              }
            }
          }
          JOINT RightShoulder
          {
            OFFSET 23.161716 5.296122 -1.380114
            CHANNELS 3 Zrotation Yrotation Xrotation
            JOINT RightArm
            {
              OFFSET -16.027195 -2e-06 1.1e-05
              CHANNELS 3 Zrotation Yrotation Xrotation
              JOINT RightForeArm
              {
                OFFSET -28.736639 4e-06 2e-06
                CHANNELS 3 Zrotation Yrotation Xrotation
                JOINT RightHand
                {
                  OFFSET -27.133619 6e-06 0.0
                  CHANNELS 3 Zrotation Yrotation Xrotation
                  JOINT RightHandThumb1
                  {
                    OFFSET -2.274328 -3.351035 -0.83067
                    CHANNELS 3 Zrotation Yrotation Xrotation
                    JOINT RightHandThumb2
                    {
                      OFFSET -4.703594 -3e-06 2e-06
                      CHANNELS 3 Zrotation Yrotation Xrotation
                      JOINT RightHandThumb3
                      {
                        OFFSET -2.794935 -4e-06 -3e-06
                        CHANNELS 3 Zrotation Yrotation Xrotation
                        JOINT RightHandThumbEnd
                        {
                          OFFSET -3.183852 4e-06 1e-06
                          CHANNELS 3 Zrotation Yrotation Xrotation
                        }
                      }
                    }
                  }
                  JOINT RightHandIndex1
                  {
                    OFFSET -3.253496 -2.33755 -0.127667
                    CHANNELS 3 Zrotation Yrotation Xrotation
                    JOINT RightHandIndex2
                    {
                      OFFSET -6.344434 0.0 0.0
                      CHANNELS 3 Zrotation Yrotation Xrotation
                      JOINT RightHandIndex3
                      {
                        OFFSET -3.654871 0.0 -8e-06
                        CHANNELS 3 Zrotation Yrotation Xrotation
                        JOINT RightHandIndex4
                        {
                          OFFSET -2.327586 -1e-06 0.0
                          CHANNELS 3 Zrotation Yrotation Xrotation
                          JOINT RightHandIndexEnd
                          {
                            OFFSET -2.770001 3e-06 8e-06
                            CHANNELS 3 Zrotation Yrotation Xrotation
                          }
                        }
                      }
                    }
                  }
                  JOINT RightHandMiddle1
                  {
                    OFFSET -3.168223 -0.944764 0.411762
                    CHANNELS 3 Zrotation Yrotation Xrotation
                    JOINT RightHandMiddle2
                    {
                      OFFSET -6.266691 -1e-06 -4e-06
                      CHANNELS 3 Zrotation Yrotation Xrotation
                      JOINT RightHandMiddle3
                      {
                        OFFSET -4.348901 0.0 0.0
                        CHANNELS 3 Zrotation Yrotation Xrotation
                        JOINT RightHandMiddle4
                        {
                          OFFSET -3.00024 2e-06 -4e-06
                          CHANNELS 3 Zrotation Yrotation Xrotation
                          JOINT RightHandMiddleEnd
                          {
                            OFFSET -2.321477 -4e-06 -4e-06
                            CHANNELS 3 Zrotation Yrotation Xrotation
                          }
                        }
                      }
                    }
                  }
                  JOINT RightHandRing1
                  {
                    OFFSET -2.885654 0.293261 -0.119232
                    CHANNELS 3 Zrotation Yrotation Xrotation
                    JOINT RightHandRing2
                    {
                      OFFSET -6.032835 -1e-06 -4e-06
                      CHANNELS 3 Zrotation Yrotation Xrotation
                      JOINT RightHandRing3
                      {
                        OFFSET -4.33881 0.0 -4e-06
                        CHANNELS 3 Zrotation Yrotation Xrotation
                        JOINT RightHandRing4
                        {
                          OFFSET -2.654903 -4e-06 -4e-06
                          CHANNELS 3 Zrotation Yrotation Xrotation
                          JOINT RightHandRingEnd
                          {
                            OFFSET -1.935122 0.0 4e-06
                            CHANNELS 3 Zrotation Yrotation Xrotation
                          }
                        }
                      }
                    }
                  }
                  JOINT RightHandPinky1
                  {
                    OFFSET -2.866241 1.503904 -0.60527
                    CHANNELS 3 Zrotation Yrotation Xrotation
                    JOINT RightHandPinky2
                    {
                      OFFSET -5.553177 -2e-06 0.0
                      CHANNELS 3 Zrotation Yrotation Xrotation
                      JOINT RightHandPinky3
                      {
                        OFFSET -3.062664 -1e-06 -4e-06
                        CHANNELS 3 Zrotation Yrotation Xrotation
                        JOINT RightHandPinky4
                        {
                          OFFSET -1.546529 2e-06 4e-06
                          CHANNELS 3 Zrotation Yrotation Xrotation
                          JOINT RightHandPinkyEnd
                          {
                            OFFSET -1.952341 0.0 -4e-06
                            CHANNELS 3 Zrotation Yrotation Xrotation
                          }
                        }
                      }
                    }
                  }
                }
              }
            }
          }
        }
      }
    }
    JOINT LeftLeg
    {
      OFFSET -8.443107 2.567604 10.043214
      CHANNELS 3 Zrotation Yrotation Xrotation
      JOINT LeftShin
      {
        OFFSET 43.229198 1e-06 -1e-06
        CHANNELS 3 Zrotation Yrotation Xrotation
        JOINT LeftFoot
        {
          OFFSET 42.298611 1e-06 1e-06
          CHANNELS 3 Zrotation Yrotation Xrotation
          JOINT LeftToeBase
          {
            OFFSET 14.165858 1e-06 0.0
            CHANNELS 3 Zrotation Yrotation Xrotation
            JOINT LeftToeEnd
            {
              OFFSET 6.7141 -0.234461 0.0
              CHANNELS 3 Zrotation Yrotation Xrotation
            }
          }
        }
      }
    }
    JOINT RightLeg
    {
      OFFSET -8.303923 2.592729 -10.047278
      CHANNELS 3 Zrotation Yrotation Xrotation
      JOINT RightShin
      {
        OFFSET -43.369682 0.0 1e-06
        CHANNELS 3 Zrotation Yrotation Xrotation
        JOINT RightFoot
        {
          OFFSET -42.260784 4e-06 2e-06
          CHANNELS 3 Zrotation Yrotation Xrotation
          JOINT RightToeBase
          {
            OFFSET -14.222245 -2e-06 -1e-06
            CHANNELS 3 Zrotation Yrotation Xrotation
            JOINT RightToeEnd
            {
              OFFSET -6.660062 0.232574 -2e-06
              CHANNELS 3 Zrotation Yrotation Xrotation
            }
          }
        }
      }
    }
  }
}
MOTION
Frames: 4
Frame Time: 0.03333333333333333
0.0 0.0 0.0 0.0 -0.0 0.0 -0.724087 100.145424 -3.120635 88.996277 -1.614025 90.172516 -2.14075 -1.923668 -0.021064 -11.975327 -1.163533 -0.903085 18.801146 1.4843 -2.604098 14.099049 6.37059 2.920619 -2.628319 -0.711504 2.229752 -40.994659 8.722325 -5.842553 6e-06 1e-06 -1e-06 0.050235 0.000781 0.153261 0.109903 -0.086801 0.174521 0.119207 0.095761 0.139096 -128.070496 -70.736732 146.809692 41.596165 -52.166126 11.762649 30.16106 -0.068963 0.175997 -5.590954 0.592169 -2.624532 17.636623 -26.322737 52.411201 -19.466656 -14.395596 29.410389 -0.0 -8.774819 -2e-06 16.474438 -17.931461 5.829055 -0.609776 -1.795653 -3.889327 -4.807087 -11.04681 -2.937852 4e-06 -20.976015 2e-06 -5.019971 -25.033556 -4.031879 4e-06 1e-06 -0.0 -10.634532 -5.68697 -3.565589 10.573271 -17.922947 -3.113898 3e-06 -13.821206 0.0 -0.501776 -31.181501 -4.027014 -11.639324 -59.752266 7.510417 -13.982712 -7.150198 -2.875043 13.772727 -8.40149 -3.218244 0.347733 -34.211552 0.771657 -0.963029 -17.73337 2.621021 -0.0 -0.0 1e-06 -17.346415 -20.095217 -4.201783 21.757555 -1.638373 3.866425 1e-06 -6.338824 1e-06 -1.697592 -22.591743 -6.194002 -1e-06 -3e-06 -1e-06 54.828732 -79.01696 142.564194 39.177803 -63.815857 0.29559 31.458557 -0.099627 -0.07244 0.93671 -2.864673 16.707972 22.182116 -20.3759 49.933323 -16.701807 -16.743528 28.476528 -3e-06 -12.6906 -3e-06 16.416718 -17.936388 2.366292 -0.105919 -1.513856 -4.275882 -5.039042 -5.61287 -2.953555 4e-06 -11.020523 -1e-06 -6.1113 -15.895334 -3.840472 -0.0 1e-06 -0.0 -10.283369 -5.680288 -4.341837 11.028293 -11.302403 -2.372634 -1.384269 -14.23858 -6.320123 -0.625444 -26.924187 -3.827598 -4.081408 -49.883671 -4.286359 -13.708527 -7.363477 -3.720937 18.141148 -14.052737 -3.242673 7e-06 -18.78727 -3e-06 -0.429711 -8.456043 2.555504 0.0 1e-06 0.0 -15.923538 -20.094482 -5.473583 30.41921 -7.190823 1.73593 5e-06 -8.162929 -0.0 -1.861903 -22.861469 -6.167941 -2e-06 -3e-06 -4e-06 -179.561325 -0.919872 -12.150878 10.869075 -0.015336 -0.081375 -81.770332 -10.016047 -5.751896 -3.421304 1.497732 2.217125 -0.999999 -0.0 -0.0 1.885535 -2.283116 -0.661744 5.63337 -0.01836 0.099562 -78.254288 0.116286 -4.107843 -3.324077 0.63847 1.709234 -1.000003 0.0 0.0 
0.0 0.0 0.0 0.0 -0.0 0.0 -0.664644 100.16037 -2.963522 88.970856 -1.652546 90.194633 -2.202317 -1.925759 -0.046049 -11.968771 -1.154777 -0.855626 18.737865 1.382004 -2.653944 13.780503 6.668604 2.905689 -2.62417 -0.717258 2.059865 -41.150089 8.755781 -6.10754 6e-06 1e-06 -1e-06 0.041616 -0.003446 0.163582 0.123909 -0.088907 0.191796 0.143587 0.088793 0.140478 -128.434845 -70.750778 147.204025 41.562317 -52.154896 11.803675 29.901674 -0.116112 0.128501 -5.473519 0.459522 -2.382093 17.636637 -26.322725 52.411179 -19.466658 -14.395597 29.410381 -1e-06 -8.774822 -4e-06 16.488876 -17.893055 5.809041 -0.609776 -1.795653 -3.889327 -4.807088 -11.046809 -2.937852 6e-06 -20.976015 0.0 -5.019969 -25.033548 -4.031878 5e-06 1e-06 3e-06 -10.634534 -5.686969 -3.565587 10.573274 -17.922947 -3.113899 3e-06 -13.821205 0.0 -0.501777 -31.181498 -4.027015 -11.570592 -59.68515 7.531982 -13.982716 -7.150198 -2.875041 13.772731 -8.401491 -3.218243 0.347734 -34.211544 0.771655 -0.963026 -17.73337 2.621017 -1e-06 1e-06 0.0 -17.346422 -20.095217 -4.201782 21.757565 -1.638376 3.866429 1e-06 -6.338824 -0.0 -1.69759 -22.591742 -6.194004 -0.0 -4e-06 -1e-06 55.044655 -78.979721 142.352722 39.292683 -63.75457 0.2924 31.309488 -0.106417 -0.062351 0.875866 -3.106447 16.41519 22.182117 -20.375898 49.933327 -16.701817 -16.74353 28.476532 -5e-06 -12.690603 -3e-06 16.420132 -17.920713 2.347413 -0.105919 -1.513857 -4.27588 -5.039041 -5.612872 -2.953555 5e-06 -11.020525 -0.0 -6.111297 -15.895334 -3.840473 -1e-06 -1e-06 -1e-06 -10.283371 -5.680289 -4.341837 11.028296 -11.302407 -2.372633 -1.384268 -14.238584 -6.320124 -0.625439 -26.924198 -3.827599 -4.103346 -49.951595 -4.265749 -13.708526 -7.363478 -3.720939 18.141155 -14.052742 -3.242676 8e-06 -18.787275 -4e-06 -0.429715 -8.456047 2.555507 0.0 2e-06 1e-06 -15.923536 -20.094484 -5.473586 30.419218 -7.190829 1.735927 4e-06 -8.162929 1e-06 -1.8619 -22.861479 -6.167943 -0.0 -3e-06 -3e-06 -179.26387 -0.873259 -12.120007 10.390875 -0.020785 -0.030785 -81.650192 -10.019143 -5.839607 -3.459008 1.52339 2.22942 -0.999998 -0.0 -0.0 1.927085 -2.229271 -0.653002 5.62481 -0.024899 0.116007 -78.20443 0.051298 -4.069378 -3.352826 0.618034 1.708085 -1.000001 0.0 0.0 
0.0 0.0 0.0 0.0 -0.0 0.0 -0.607826 100.146294 -2.791187 88.953117 -1.651126 90.19529 -2.271744 -1.940822 -0.063384 -11.990948 -1.149475 -0.837558 18.726271 1.262557 -2.695663 13.431574 6.988938 2.895935 -2.660255 -0.733542 1.802859 -41.354248 8.782081 -6.552068 6e-06 0.0 -0.0 0.033784 -0.010816 0.173996 0.120433 -0.09656 0.208245 0.154526 0.080707 0.142694 -128.932068 -70.761238 147.694077 41.411522 -52.074314 12.154204 29.745003 -0.118726 0.083801 -5.457154 0.299243 -2.336116 17.636629 -26.322729 52.411182 -19.466656 -14.395597 29.410385 -0.0 -8.774821 -2e-06 16.489878 -17.887293 5.835734 -0.609776 -1.795653 -3.889328 -4.807088 -11.046809 -2.937848 4e-06 -20.976015 1e-06 -5.019969 -25.033556 -4.031879 6e-06 0.0 -0.0 -10.634533 -5.686969 -3.565586 10.573275 -17.922949 -3.113901 2e-06 -13.821205 1e-06 -0.501776 -31.181505 -4.027015 -11.597798 -59.648029 7.573868 -13.982715 -7.150197 -2.875041 13.77273 -8.40149 -3.218243 0.347731 -34.211552 0.771657 -0.963025 -17.73337 2.621019 0.0 0.0 1e-06 -17.346416 -20.095217 -4.201783 21.757557 -1.638374 3.866429 1e-06 -6.338823 0.0 -1.69759 -22.591743 -6.194005 -0.0 -3e-06 -2e-06 55.065617 -78.931198 142.306335 39.259365 -63.662987 0.396774 31.224781 -0.087705 -0.052309 0.826738 -3.251601 16.376032 22.182116 -20.3759 49.933315 -16.701813 -16.743528 28.47653 -5e-06 -12.690598 -3e-06 16.450239 -17.886705 2.346926 -0.105919 -1.513856 -4.275883 -5.03904 -5.61287 -2.953556 5e-06 -11.020523 1e-06 -6.111295 -15.89533 -3.840471 -0.0 -0.0 1e-06 -10.283367 -5.680286 -4.341837 11.028293 -11.302404 -2.372632 -1.384267 -14.238579 -6.320121 -0.625439 -26.924187 -3.827599 -4.125695 -49.983799 -4.251413 -13.708524 -7.363474 -3.720943 18.141148 -14.05274 -3.242672 9e-06 -18.787271 -4e-06 -0.429712 -8.456045 2.555508 0.0 1e-06 -1e-06 -15.923532 -20.094481 -5.473588 30.41921 -7.190826 1.735926 3e-06 -8.162927 1e-06 -1.8619 -22.861469 -6.167941 -2e-06 -4e-06 -2e-06 -179.098114 -0.844069 -12.065027 10.290756 -0.02621 -0.004304 -81.723007 -10.036516 -5.842982 -3.424138 1.538763 2.238943 -0.999999 -1e-06 -0.0 2.05522 -2.22656 -0.63391 5.608565 -0.028152 0.130728 -78.209145 -0.042198 -4.109227 -3.3449 0.604134 1.704957 -1.000001 0.0 -0.0 
0.0 0.0 0.0 0.0 -0.0 0.0 -0.563582 100.123283 -2.593282 88.940094 -1.60264 90.204247 -2.334239 -1.970415 -0.068 -12.024834 -1.145184 -0.83445 18.726002 1.140297 -2.729508 13.13987 7.287179 2.891454 -2.693636 -0.747566 1.518678 -41.674076 8.798531 -7.082261 7e-06 -0.0 -1e-06 0.02644 -0.018693 0.176558 0.107279 -0.105899 0.213714 0.155497 0.07332 0.14018 -129.45871 -70.763725 148.197861 41.245735 -51.939606 12.550701 29.690983 -0.119718 0.055323 -5.439995 0.138318 -2.385422 17.636629 -26.322727 52.411182 -19.466658 -14.395596 29.410385 -0.0 -8.774819 -3e-06 16.462881 -17.857452 5.853559 -0.609777 -1.795653 -3.88933 -4.807087 -11.046807 -2.93785 4e-06 -20.976011 2e-06 -5.01997 -25.033552 -4.031879 6e-06 1e-06 0.0 -10.634531 -5.686969 -3.565589 10.573271 -17.922945 -3.113901 2e-06 -13.821205 3e-06 -0.501777 -31.181501 -4.027013 -11.610185 -59.602436 7.569877 -13.982711 -7.150196 -2.875044 13.772726 -8.401489 -3.21824 0.347734 -34.211544 0.771655 -0.963028 -17.73337 2.621019 -1e-06 0.0 0.0 -17.346413 -20.095213 -4.201785 21.757555 -1.638375 3.866427 1e-06 -6.338823 1e-06 -1.697589 -22.591738 -6.194002 -1e-06 -4e-06 -2e-06 54.945057 -78.867744 142.379166 39.083611 -63.563744 0.577566 31.214785 -0.063012 -0.047231 0.778161 -3.354019 16.357172 22.182116 -20.375891 49.933319 -16.701811 -16.74353 28.476528 -3e-06 -12.6906 -3e-06 16.471184 -17.845057 2.352807 -0.10592 -1.513856 -4.275879 -5.03904 -5.61287 -2.953555 3e-06 -11.020521 -0.0 -6.111296 -15.89533 -3.840472 -0.0 -0.0 -0.0 -10.283367 -5.680287 -4.341838 11.028291 -11.302404 -2.372631 -1.384268 -14.238577 -6.320123 -0.625438 -26.924185 -3.8276 -4.148079 -49.968903 -4.23896 -13.708522 -7.363475 -3.72094 18.141146 -14.052737 -3.242674 7e-06 -18.78727 -4e-06 -0.429713 -8.456043 2.555504 -0.0 2e-06 -1e-06 -15.923532 -20.094482 -5.473584 30.41921 -7.190823 1.735926 3e-06 -8.162925 -0.0 -1.861899 -22.861469 -6.167945 -1e-06 -1e-06 -2e-06 -178.882523 -0.821504 -12.034989 10.226738 -0.032576 0.012158 -81.827599 -10.050917 -5.829079 -3.382353 1.542317 2.244176 -0.999999 0.0 -0.0 2.253443 -2.244679 -0.637563 5.592463 -0.026555 0.134697 -78.337364 -0.103481 -4.161007 -3.333322 0.591716 1.701721 -1.000003 0.0 -0.0 
